#!OML:ASF F:\twosubjects\two\Thursday\Session 1\justin.ASF
:FULLY-SPECIFIED
:DEGREES
604
root 10.8185 17.8013 -11.9712 0.445576 -49.0142 5.34501
lowerback -2.74303 2.26653 -3.29423
upperback -0.77703 3.10517 0.325619
thorax 0.545291 1.55197 2.27076
lowerneck -22.24 6.82918 -3.71838
upperneck 22.7341 11.1593 -1.13063
head 10.874 4.56537 1.91851
rclavicle 7.46685e-014 -1.19271e-015
rhumerus -25.3126 -5.9579 -84.8936
rradius 31.2736
rwrist -3.37619
rhand -15.8168 14.3777
rfingers 7.12502
rthumb 10.3768 -15.3462
lclavicle 7.46685e-014 -1.19271e-015
lhumerus -27.9351 8.55767 84.2059
lradius 29.48
lwrist -13.5235
lhand -3.21374 39.6844
lfingers 7.12502
lthumb 22.5088 68.3925
rfemur -4.40246 -3.47245 5.89357
rtibia 19.8458
rfoot -14.4267 -17.0202
rtoes -17.6075
lfemur -6.30282 10.1758 -26.7258
ltibia 16.4179
lfoot -13.5485 -1.01232
ltoes -9.92709
605
root 10.8168 17.8049 -11.9756 0.810198 -48.9744 4.92009
lowerback -2.66158 2.22388 -3.05461
upperback -0.869631 3.03686 0.41563
thorax 0.416694 1.52114 2.22142
lowerneck -22.2917 6.86473 -3.59085
upperneck 22.8172 11.227 -1.32264
head 10.9357 4.57535 1.84706
rclavicle 9.66466e-014 1.59028e-015
rhumerus -25.6111 -5.98076 -84.791
rradius 31.1815
rwrist -3.43438
rhand -15.9516 14.5174
rfingers 7.12502
rthumb 10.2468 -15.213
lclavicle 9.66466e-014 1.59028e-015
lhumerus -28.1242 8.55622 84.1558
lradius 29.0249
lwrist -13.3168
lhand -2.81462 39.7166
lfingers 7.12502
lthumb 22.8919 68.3778
rfemur -4.41191 -3.41158 6.24728
rtibia 19.7759
rfoot -14.3403 -17.1757
rtoes -17.4213
lfemur -6.43588 10.1485 -26.4053
ltibia 16.5611
lfoot -13.55 -1.05932
ltoes -9.22435
606
root 10.8148 17.8062 -11.9771 0.992035 -48.9022 4.74408
lowerback -2.60473 2.21732 -2.9516
upperback -0.970464 3.02179 0.437203
thorax 0.28656 1.5167 2.18038
lowerneck -22.0647 6.87856 -3.68236
upperneck 22.6682 11.2144 -1.17582
head 10.8214 4.59403 1.89566
rclavicle 6.33626e-014 -7.55382e-015
rhumerus -25.8911 -6.37964 -84.5867
rradius 30.9616
rwrist -3.31468
rhand -15.7774 13.7817
rfingers 7.12502
rthumb 10.4149 -15.9403
lclavicle 6.33626e-014 -7.55382e-015
lhumerus -28.3207 8.89421 84.0036
lradius 28.5655
lwrist -13.7007
lhand -2.82986 39.8449
lfingers 7.12502
lthumb 22.8772 68.5079
rfemur -4.44462 -3.42955 6.40051
rtibia 19.777
rfoot -14.3135 -17.2821
rtoes -17.3869
lfemur -6.50109 10.0466 -26.2685
ltibia 16.5904
lfoot -13.4775 -1.09444
ltoes -8.69853
607
root 10.812 17.8055 -11.9753 0.833068 -48.8382 4.97784
lowerback -2.62179 2.20077 -3.12369
upperback -0.991559 3.00425 0.40108
thorax 0.268443 1.50872 2.2392
lowerneck -21.8548 6.88853 -3.71916
upperneck 22.408 11.2059 -1.15601
head 10.6826 4.60694 1.88914
rclavicle -1.96424e-014 -4.77083e-015
rhumerus -26.0123 -6.81385 -84.3528
rradius 30.6005
rwrist -2.97738
rhand -15.7934 13.468
rfingers 7.12502
rthumb 10.3994 -16.2549
lclavicle -1.96424e-014 -4.77083e-015
lhumerus -28.3992 9.22211 83.862
lradius 28.0771
lwrist -14.0261
lhand -2.6734 40.1647
lfingers 7.12502
lthumb 23.0274 68.809
rfemur -4.45702 -3.47508 6.2282
rtibia 19.8177
rfoot -14.382 -17.2731
rtoes -17.3164
lfemur -6.51145 10.0555 -26.4356
ltibia 16.5899
lfoot -13.6202 -1.14962
ltoes -9.42798
608
root 10.8102 17.8039 -11.976 0.543339 -48.8456 5.36509
lowerback -2.61313 2.20282 -3.39635
upperback -0.992127 3.01367 0.324012
thorax 0.252291 1.51411 2.31212
lowerneck -21.7979 6.89738 -3.6015
upperneck 22.2772 11.2121 -1.32397
head 10.6433 4.60459 1.80716
rclavicle -2.47238e-015 -6.36111e-015
rhumerus -26.039 -7.33136 -84.1483
rradius 30.2003
rwrist -2.38915
rhand -15.8451 13.5403
rfingers 7.12502
rthumb 10.3496 -16.1851
lclavicle -2.47238e-015 -6.36111e-015
lhumerus -28.4504 9.43035 83.7446
lradius 27.6315
lwrist -14.0266
lhand -2.72607 40.6313
lfingers 7.12502
lthumb 22.9768 69.282
rfemur -4.50786 -3.49111 5.9424
rtibia 19.9083
rfoot -14.4206 -17.2337
rtoes -17.2295
lfemur -6.50922 10.127 -26.7154
ltibia 16.5809
lfoot -13.7857 -1.1286
ltoes -10.5001
609
root 10.8103 17.8031 -11.98 0.617703 -48.8173 5.32376
lowerback -2.61119 2.20068 -3.39413
upperback -1.01087 3.01026 0.329515
thorax 0.232 1.513 2.31586
lowerneck -21.7226 6.90443 -3.5984
upperneck 22.1377 11.2251 -1.391
head 10.5832 4.61014 1.77762
rclavicle -3.91979e-014 -9.54166e-015
rhumerus -26.0847 -7.90108 -83.8974
rradius 29.7732
rwrist -1.68177
rhand -15.747 13.5283
rfingers 7.12502
rthumb 10.4442 -16.1922
lclavicle -3.91979e-014 -9.54166e-015
lhumerus -28.5623 9.79067 83.6135
lradius 27.2272
lwrist -14.1141
lhand -2.18028 40.8703
lfingers 7.12502
lthumb 23.5005 69.4548
rfemur -4.60807 -3.52637 5.98707
rtibia 20.0165
rfoot -14.4451 -17.2243
rtoes -17.1215
lfemur -6.54823 10.1759 -26.6806
ltibia 16.5332
lfoot -13.7116 -1.16305
ltoes -10.4107
610
root 10.8093 17.8035 -11.9833 0.814816 -48.7978 5.12773
lowerback -2.62655 2.21086 -3.28494
upperback -1.03004 3.02121 0.357305
thorax 0.224438 1.51864 2.28382
lowerneck -21.6427 6.8935 -3.63448
upperneck 21.9731 11.2118 -1.41247
head 10.5078 4.60788 1.76502
rclavicle -2.38542e-014 1.07344e-014
rhumerus -26.1992 -8.36251 -83.6411
rradius 29.3419
rwrist -1.28375
rhand -15.8246 13.4548
rfingers 7.12502
rthumb 10.3694 -16.2696
lclavicle -2.38542e-014 1.07344e-014
lhumerus -28.7154 10.5792 83.3213
lradius 26.8581
lwrist -14.8149
lhand -1.69643 40.5803
lfingers 7.12502
lthumb 23.9645 69.1047
rfemur -4.69212 -3.65599 6.13664
rtibia 20.0662
rfoot -14.4463 -17.0787
rtoes -17.107
lfemur -6.57648 10.2218 -26.5282
ltibia 16.4611
lfoot -13.4581 -1.31384
ltoes -8.89612
611
root 10.8075 17.8049 -11.9825 0.803018 -48.7938 5.1657
lowerback -2.6504 2.22836 -3.31406
upperback -0.999123 3.04683 0.33638
thorax 0.26749 1.53034 2.28107
lowerneck -21.6484 6.87533 -3.56859
upperneck 21.8205 11.1933 -1.55948
head 10.4683 4.59267 1.69701
rclavicle -2.24875e-014 -2.38542e-015
rhumerus -26.2484 -8.7586 -83.4106
rradius 28.9186
rwrist -1.07685
rhand -15.9178 14.0042
rfingers 7.12502
rthumb 10.2795 -15.7246
lclavicle -2.24875e-014 -2.38542e-015
lhumerus -28.794 11.2386 83.0825
lradius 26.508
lwrist -15.5488
lhand -1.66374 40.4694
lfingers 7.12502
lthumb 23.9959 68.9896
rfemur -4.70244 -3.8429 6.08603
rtibia 20.047
rfoot -14.4692 -16.8943
rtoes -16.9014
lfemur -6.53264 10.2732 -26.5517
ltibia 16.3514
lfoot -13.2793 -1.45801
ltoes -7.73412
612
root 10.8059 17.8074 -11.9811 0.646615 -48.7865 5.33012
lowerback -2.61743 2.2586 -3.4483
upperback -0.947026 3.09058 0.299215
thorax 0.294597 1.55133 2.3187
lowerneck -21.7363 6.85708 -3.4962
upperneck 21.7353 11.1786 -1.69496
head 10.4679 4.57638 1.63822
rclavicle -9.14782e-014 -2.78299e-015
rhumerus -26.269 -9.26522 -83.1524
rradius 28.5452
rwrist -0.809044
rhand -15.9026 14.9673
rfingers 7.12502
rthumb 10.2941 -14.7608
lclavicle -9.14782e-014 -2.78299e-015
lhumerus -28.8718 11.377 83.0359
lradius 26.2462
lwrist -15.6847
lhand -1.92071 40.646
lfingers 7.12502
lthumb 23.7494 69.1984
rfemur -4.62037 -3.90672 5.94997
rtibia 19.9661
rfoot -14.4868 -16.8513
rtoes -16.8256
lfemur -6.38086 10.291 -26.6632
ltibia 16.1429
lfoot -13.2017 -1.47933
ltoes -7.97917
613
root 10.8038 17.8096 -11.979 0.340124 -48.7797 5.75823
lowerback -2.6148 2.29967 -3.75013
upperback -0.94234 3.15309 0.207732
thorax 0.282465 1.58303 2.39448
lowerneck -21.8616 6.81728 -3.50579
upperneck 21.7722 11.1313 -1.67748
head 10.5032 4.55206 1.64522
rclavicle -1.75676e-014 -1.19271e-015
rhumerus -26.4744 -9.79343 -82.8333
rradius 28.3117
rwrist -0.707862
rhand -15.8362 15.4752
rfingers 7.12502
rthumb 10.3582 -14.2497
lclavicle -1.75676e-014 -1.19271e-015
lhumerus -29.0086 11.7438 82.937
lradius 25.9759
lwrist -16.0183
lhand -2.40286 40.3698
lfingers 7.12502
lthumb 23.2869 68.9816
rfemur -4.53342 -3.93177 5.64132
rtibia 19.794
rfoot -14.302 -16.8768
rtoes -17.5223
lfemur -6.24555 10.1957 -26.9761
ltibia 15.8781
lfoot -13.0474 -1.41472
ltoes -8.008
614
root 10.8013 17.8145 -11.974 0.293204 -48.7245 5.87528
lowerback -2.64412 2.3121 -3.80398
upperback -0.971746 3.17159 0.165836
thorax 0.26679 1.5929 2.38244
lowerneck -21.9242 6.76778 -3.49151
upperneck 21.843 11.0541 -1.63296
head 10.5392 4.51932 1.65195
rclavicle 3.41661e-014 -4.37326e-015
rhumerus -26.8185 -10.1512 -82.5565
rradius 28.2322
rwrist -0.623507
rhand -15.7676 15.2459
rfingers 7.12502
rthumb 10.4243 -14.4757
lclavicle 3.41661e-014 -4.37326e-015
lhumerus -29.1668 12.2599 82.7511
lradius 25.5949
lwrist -16.5727
lhand -2.3162 40.1183
lfingers 7.12502
lthumb 23.3701 68.7195
rfemur -4.44994 -4.0381 5.5499
rtibia 19.6155
rfoot -14.1582 -16.8675
rtoes -18.0115
lfemur -6.17083 10.0665 -27.0773
ltibia 15.695
lfoot -12.9676 -1.4071
ltoes -7.47761
615
root 10.7993 17.8219 -11.9704 0.618635 -48.697 5.36239
lowerback -2.54737 2.33023 -3.44249
upperback -0.970942 3.18306 0.239743
thorax 0.228543 1.59888 2.25241
lowerneck -21.9463 6.75494 -3.37721
upperneck 21.8129 11.0185 -1.71301
head 10.5451 4.50295 1.6016
rclavicle -9.405e-015 -3.97569e-016
rhumerus -27.0252 -10.4664 -82.3909
rradius 28.0588
rwrist -0.402434
rhand -15.9845 14.4336
rfingers 7.12502
rthumb 10.2151 -15.2984
lclavicle -9.405e-015 -3.97569e-016
lhumerus -29.2972 12.4051 82.6188
lradius 25.228
lwrist -16.6099
lhand -1.76245 40.3795
lfingers 7.12502
lthumb 23.9012 68.9121
rfemur -4.30915 -3.99881 5.93558
rtibia 19.4949
rfoot -14.2031 -16.9224
rtoes -17.7136
lfemur -6.11589 9.99246 -26.6955
ltibia 15.7369
lfoot -13.0126 -1.40368
ltoes -7.14795
616
root 10.7971 17.8201 -11.9721 0.806889 -48.7191 5.10216
lowerback -2.48152 2.34552 -3.30427
upperback -0.943378 3.19838 0.273447
thorax 0.22479 1.60613 2.20787
lowerneck -22.1262 6.78956 -3.25817
upperneck 21.7555 11.0675 -1.84421
head 10.573 4.51689 1.55092
rclavicle -5.41564e-014 -8.74653e-015
rhumerus -27.0389 -10.797 -82.2475
rradius 27.6964
rwrist -0.277171
rhand -16.2875 13.9797
rfingers 7.12502
rthumb 9.92283 -15.7664
lclavicle -5.41564e-014 -8.74653e-015
lhumerus -29.2543 12.5155 82.5144
lradius 24.7883
lwrist -16.4863
lhand -1.73015 40.4053
lfingers 7.12502
lthumb 23.9322 68.9338
rfemur -4.2556 -3.78171 6.16769
rtibia 19.4094
rfoot -14.2065 -17.1388
rtoes -17.5296
lfemur -6.23505 10.0735 -26.4854
ltibia 15.9734
lfoot -13.2936 -1.45667
ltoes -7.60372
617
root 10.7956 17.8102 -11.9744 0.956161 -48.7039 4.87685
lowerback -2.39792 2.33205 -3.16086
upperback -0.968258 3.17372 0.305543
thorax 0.160124 1.59497 2.15571
lowerneck -22.7348 6.87453 -3.86867
upperneck 22.535 11.2084 -0.827192
head 10.8585 4.61801 2.06944
rclavicle -1.50331e-015 5.56597e-015
rhumerus -27.2659 -10.9933 -82.0235
rradius 27.4697
rwrist -0.41528
rhand -16.0614 13.6677
rfingers 7.12502
rthumb 10.1409 -16.0679
lclavicle -1.50331e-015 5.56597e-015
lhumerus -29.3918 12.9052 82.3221
lradius 24.4214
lwrist -16.8073
lhand -2.14706 40.0502
lfingers 7.12502
lthumb 23.5323 68.6307
rfemur -4.21882 -3.5772 6.3555
rtibia 19.4234
rfoot -14.2289 -17.3362
rtoes -17.669
lfemur -6.34303 10.2026 -26.3045
ltibia 16.231
lfoot -13.6035 -1.49621
ltoes -8.24562
618
root 10.7946 17.8062 -11.9754 1.1028 -48.6907 4.64162
lowerback -2.32763 2.32281 -2.99466
upperback -0.995607 3.15492 0.338898
thorax 0.101118 1.58649 2.09283
lowerneck -23.2106 6.9385 -4.27652
upperneck 23.2043 11.3239 -0.140799
head 11.1168 4.68822 2.435
rclavicle -5.42682e-014 -3.97569e-015
rhumerus -27.5595 -11.2734 -81.7416
rradius 27.3162
rwrist -0.513693
rhand -15.5669 13.0605
rfingers 7.12502
rthumb 10.6179 -16.6512
lclavicle -5.42682e-014 -3.97569e-015
lhumerus -29.7058 13.4882 82.0523
lradius 24.2685
lwrist -17.4032
lhand -2.31589 39.8956
lfingers 7.12502
lthumb 23.3704 68.4968
rfemur -4.2427 -3.46325 6.53836
rtibia 19.5522
rfoot -14.3335 -17.3773
rtoes -17.8083
lfemur -6.41717 10.1762 -26.1263
ltibia 16.4483
lfoot -13.6009 -1.36445
ltoes -7.90577
